<?xml version="1.0" standalone="no"?><!DOCTYPE svg PUBLIC "-//W3C//DTD SVG 1.1//EN" "http://www.w3.org/Graphics/SVG/1.1/DTD/svg11.dtd"><svg t="1675155424408" class="icon" viewBox="0 0 1024 1024" version="1.1" xmlns="http://www.w3.org/2000/svg" p-id="1926" xmlns:xlink="http://www.w3.org/1999/xlink" width="200" height="200"><path d="M854.674411 423.409386l0.38165 165.286455c-5.82017 13.675808-33.171786 29.927757-47.451874 28.178526-8.078268-0.98593-10.20915-4.738827-5.406715-11.640339 2.989595-4.325372 7.155946-7.823835 9.636674-12.530857 3.7847-7.155946 3.721092-14.21648-0.826909-20.990775-1.717427-2.576141-3.721092-6.138212-7.155947-5.311303-4.834239 1.176756-2.544336 6.138212-3.498462 9.414045-0.445259 4.643414-2.19449 9.00059-2.925987 13.6122-3.0214 13.453179-9.159611 25.379756-17.873963 36.00236-9.636674 10.336367-19.20974 21.62686-32.472094 26.651925-22.708203 8.61894-29.355282 24.521042-25.443364 46.879398 0.095413 7.060534 0.254434 14.121067 0.063608 21.181601-1.303972 23.248874 2.607945 46.656769-2.003665 69.778427-1.971861 6.615275-5.533932 12.467249-10.050129 18.414634 36.479424-10.686213 70.573532-24.998105 102.791192-51.236574-20.4183 2.894183-37.624375 5.025064-54.925863 3.848308-5.661149-0.38165-13.230549 1.113147-15.329627-5.470323-2.544336-7.823835 5.343107-10.718017 10.527192-13.803025 13.99385-8.332702 28.973631-14.82076 43.889804-22.485573-16.156536 1.844644-31.168121-1.781036-46.179707-4.866044-4.325372-0.890518-10.654409-1.303972-10.622604-7.442184 0.031804-5.502128 5.661149-7.060534 10.081933-8.873373 9.827499-4.00733 20.513712-5.470323 30.309408-9.541262 21.117992-8.841569 41.313663-19.146132 57.183961-36.447619 4.357176-4.738827 8.459919-11.322297 16.856229-9.541262 0.063608 37.592571 1.272168 75.24875-0.031804 112.809517-2.162686 62.272634-56.198031 115.735503-118.820512 116.085349-150.465696 0.826909-300.899587 0.795105-451.365282 0.063609-64.689754-0.318042-118.693294-55.43473-120.315309-120.060875-0.254434-10.050129 0.063608-20.132062 0.127217-30.182191 13.453179-2.067273 23.980371 5.851974 35.461689 10.463583 2.41712 0.954126 4.548001 3.562071 4.102742 6.329037-2.035469 12.530857 7.505792 17.651334 15.075194 23.916763 20.19567 16.697208 43.126502 28.528372 67.647544 37.401745 4.802435 1.749231 9.636674 4.61161 15.361432 2.353511 2.003665-6.360841-3.721092-10.718017-4.22996-16.347361-2.130882-12.181011-0.572476-24.457434-1.049538-36.670249-0.286238-3.530267-0.095413-7.092338 0.063608-10.622605 0.031804-17.969376-0.508867-35.938752 0.190825-53.876323 0.540671-13.644004-5.629344-21.467839-17.365096-27.097183-20.927167-10.018325-37.592571-24.616455-49.582756-45.098364-13.325962-22.771811-13.071528-47.388266-12.976116-72.259154 0-6.551666-0.349846-13.103333 0.031804-19.654999 0.477063-25.602385-1.240364-51.172966 0.063609-76.743548 0.508867-12.308227-0.540671-24.616455 0-36.924682 0.127217-3.434854-0.159021-6.869708 0.159021-10.272758 1.399385-11.258689-2.385315-16.061124-14.184676-11.767556-7.919247 2.862378-16.092928 4.929652-24.266609 6.901512-4.802435 1.176756-9.98652 4.516197-14.59813-0.699692-0.190825-6.360841-0.38165-12.753486-0.60428-19.114328 1.049539-8.650744 8.046464-10.463584 14.661739-12.212815 9.22322-2.448924 18.637264-4.643414 28.21033-3.911917 11.576731 0.890518 18.064789-3.943721 19.973041-15.234214 3.116812-10.749821 7.855639-20.895363 11.544927-31.422555 2.099078-5.311302 5.311302-10.145542 7.855638-17.142467-12.880703 1.81284-23.312483 7.633009-34.380346 11.163276-7.346771 2.353511-14.629934 2.321707-15.329627-7.251359-1.240364-16.506383-9.98652-24.393826-25.761406-26.01584-1.526602-0.159021-2.480728-1.749231-2.766966-3.40305 13.294158-46.81579 42.649439-77.729478 90.005901-90.769202-2.830574 11.926577-14.152871 16.442774-21.817685 23.82135-28.782806 27.733267-10.368171 52.922198 15.202411 66.725223 8.841569 4.770631 11.990185-2.862378 15.838494-8.364506 1.176756-1.876448 2.480728-3.657484 3.7847-5.438519 3.40305-5.21589 8.650744-10.272758 3.752897-16.983446-8.555331-11.703948-5.184085-23.344287 0.540671-34.253129 5.883778-11.163276 8.110072-25.538777 22.899028-30.054974 130.556263 0 261.14433-0.031804 391.700593-0.031804 16.919837 6.488058 21.02258 22.644594 26.23847 37.051899 3.530267 9.795695 7.537597 18.351026 15.679473 24.80728 3.593875 3.7847 7.314967 7.473988 10.845234 11.354102 9.445849 9.859304 13.103333 9.732087 20.036649-0.636085 5.82017-8.746156 5.406715-17.61953 1.558406-27.033574-5.915582-14.439109-18.255614-22.708203-29.577911-32.026835-4.166351-3.434854-11.004255-4.866043-10.431779-12.371836 52.826785-2.607945 90.769202 21.245209 117.103084 65.771097-1.431189 4.229959-5.565736 4.293568-8.777961 5.756561-11.926577 5.406715-15.329627 15.361431-13.6122 27.2244 1.367581 9.414045 2.41712 18.764481 1.494798 28.21033-1.367581 14.248284-8.141877 18.319222-21.40423 13.230549-5.788365-2.226294-11.004255-5.788365-17.428705-7.601205-1.049539 6.297233 3.498463 10.177346 4.325372 15.138802 2.576141 8.205485 5.374911 16.315557 8.205485 24.42563 2.289903 9.541262 8.746156 12.149206 17.651334 10.527192 9.700283-1.749231 19.400565-3.40305 28.687394-6.933317 4.707022-1.781036 9.445849-4.802435 14.788955-1.749231 0.127217 17.587726 0.254434 35.175451 0.413455 52.731372-13.38957 7.028729-25.506973-1.940057-38.196851-3.18042-7.505792-0.731497-15.42504-3.40305-15.361431 8.682548-0.063608 2.353511-0.095413 4.707022-0.063609 7.060533-0.477063 10.495388 5.025064 12.053794 14.121068 10.590801 13.039724-2.162686 26.588316-7.41038 39.341802 1.749231z" fill="#123450" p-id="1927"></path><path d="M301.440258 788.489859c3.085008 5.883778 6.138212 11.767556 9.668479 18.510048-14.152871 2.19449-24.616455-3.40305-35.270864-7.346772-26.461099-9.859304-49.360127-25.506973-71.082399-43.41274-7.982856-6.583471-10.463584-11.958381-1.749231-19.81402-13.898438-5.406715-26.588316-10.336367-39.24639-15.266018-5.756561-4.579806-12.02199-8.650744-17.142466-13.866634-8.650744-8.777961-12.053794-20.132062-4.039134-30.054974 15.488648-19.146132 12.689878-40.61397 10.018324-61.922788-3.40305-27.2244-11.926577-53.303848-21.467838-78.969842-2.735162-7.346771-4.102742-11.990185 5.025064-16.092928 10.495388-4.707022 9.922912 4.070938 12.753486 8.587136 4.99326 8.01466 9.445849 16.347362 14.121068 24.552846 9.318632 5.406715 11.831164 15.711277 17.969376 24.552847-5.82017-18.287418-8.364506-35.01643 11.322297-46.529553 6.837904-4.00733 3.975526-11.258689 2.162686-17.301487-5.629344-18.700873-11.067863-37.306333-9.414045-57.342983 1.049539-12.499053 5.788365-22.390161 16.220145-29.19626 5.343107-3.498463 11.163276-6.519862 17.3969-1.431189 1.335777 4.866043 0.477063 9.827499 0.699693 14.757151-12.053794 16.41097-9.859304 33.712458-3.848309 51.618225 3.116812 9.318632 3.593875 19.336957 4.579805 29.164457 0 6.074603 0 12.149206 0.031805 18.223809-0.858714 4.707022-1.240364 10.081933-6.201821 12.212815-11.41771 4.961456-9.700283 13.38957-7.028729 22.580986 3.975526 13.707613 9.096003 27.192596 8.650744 41.82253-0.222629 6.965121-0.413455 14.21648-7.887443 17.778551-7.982856 3.816505-14.248284-0.286238-20.100258-5.343107-5.21589-4.516197-9.732087-9.732087-14.152871-15.488648 6.8061 15.743082 5.025064 43.094698-3.943722 63.004131-6.837904 15.170606-6.074603 18.382831 8.873374 25.697798 26.39749 12.944312 55.148492 18.446439 83.454235 25.316147 12.658074 3.053204 26.556511 2.099078 37.59257 10.781626l0.095413 8.587135c-0.38165 13.548591-9.509457 21.785881-19.336957 29.959562 7.219555 4.99326 15.584061 5.979191 21.277013 11.672143zM777.549213 623.426033c6.8061-10.81343 12.912507-21.944902 16.442774-34.348541 2.258099-4.00733 7.155946-7.378576 3.339441-12.944312v-19.114327c27.478833 12.499053 28.083113 22.61279 4.452589 56.770506 21.531447-1.59021 39.214585-9.382241 53.24024-25.125322 16.665404-14.280088 24.043979-34.475759 33.712458-53.176631 6.010995-11.608535 11.703948-23.376091 18.732677-34.539367-7.155946 51.172966-19.559586 100.310464-53.367457 141.496909-30.309408 33.871479-69.078734 52.794981-117.198497 62.145418 14.121067 8.364506 25.697798 7.41038 36.384011 9.318632 10.654409 1.908252 21.658664 1.940057 37.020095 3.148616-24.521042 13.548591-48.24698 19.909433-68.760692 37.21092 27.637854 6.678883 52.954002-1.20856 81.323353-0.540671-35.811535 31.740597-75.375967 49.773581-120.983197 59.950927 4.99326-8.237289 9.127807-15.075193 13.294158-21.944902 8.01466-8.746156 19.909433-9.414045 29.705128-14.629934-7.283163-0.922322-14.59813-2.130882-20.609125-7.155946-6.774296-5.661149-5.343107-13.294158-5.406715-20.609125 0.858714-4.961456 3.943721-8.682548 7.79203-11.41771 9.159611-6.551666 5.565736-10.304563-2.512532-13.389571-2.576141-1.494798-4.357176-3.593875-5.152281-6.519862-1.303972-7.092338-1.272168-14.184676 0-21.277013 3.625679-11.831164 14.979781-12.276423 23.916762-15.329627 19.973041-6.837904 40.645774-11.481318 58.646955-23.439699 11.099668-7.378576 20.895363-15.997515 31.295338-27.478834-10.081933 2.162686-18.160201 4.866043-26.397491 5.184086-11.226884 0.413455-23.344287 1.399385-28.910022-12.24462zM167.035687 265.914961c24.648259 0.826909 29.482498 4.707022 31.517967 28.719197 0.763301 9.096003 4.070938 7.124142 9.763891 4.929652 13.230549-5.056869 26.651924-9.541262 40.00969-14.152871 0.826909-0.286238 1.876448 0.159021 4.22996 0.445259l-10.972451 22.421965c-12.689878 9.032394-27.383421 13.739417-41.949747 18.128397-15.393235 4.643414-22.676398-1.335777-24.012175-17.651334-1.749231-21.436034-2.766966-22.040314-23.630525-13.83483-37.878809 14.916172-55.848185 40.073299-56.484268 79.065255 5.629344-37.687983 25.888623-48.978476 60.746032-33.553437 5.851974 2.576141 11.19508 1.622014 16.951641 0.540672 13.484983-2.512532 26.938162-5.629344 40.804796-4.802435 5.59754 0.349846 11.894773-1.017735 15.679473 5.056868-0.190825 15.361431-7.982856 19.623195-22.835419 18.541852-15.42504-1.144951-31.136317 0.60428-43.858 11.576731-7.982856 3.721092-15.711277 5.629344-18.351026-5.947387-1.462993-6.488058-3.7847-10.558996-11.19508-10.5908-8.746156-0.063608-11.894773 5.470323-13.83483 12.530857-6.392645 23.344287-12.721682 46.656769-19.082523 70.001056-0.795105 2.894183-0.095413 6.551666-4.070938 7.79203-47.324658-66.947852-23.566916-145.536044 52.445134-173.49194 6.010995-2.130882 12.117402-3.816505 18.128398-5.724757zM854.356369 345.679908c-14.21648 7.219555-29.609715 10.336367-45.130168 13.389571-13.516787 2.671553-20.132062-1.749231-19.432369-15.838495 6.042799-7.760226 15.106998-6.392645 23.280678-7.664813 26.143057-4.102742 29.100848-6.901513 34.41215-32.376681 3.053204-14.629934 9.60487-21.849489 23.789546-26.01584-7.664813-4.643414-14.979781-9.573066-23.21707-12.817095-8.237289-3.275833-12.149206-0.38165-11.894773 8.364506 0.222629 7.41038 2.735162 14.534522 2.671553 22.00851-0.127217 15.838494-4.484393 29.80054-20.004845 36.638445-14.566326 6.392645-26.62012 0-37.083703-10.336367-3.275833-7.664813-6.583471-15.329627-10.368171-24.171196 11.354101 1.749231 19.623195 8.237289 28.81461 12.340032 11.163276 4.961456 16.02932 1.431189 15.520452-10.304563-0.38165-8.905178-0.699693-17.873963-1.844644-26.683728-2.989595-22.517377 4.643414-32.726527 26.524707-34.698388 21.40423 4.643414 38.260459 17.61953 55.021276 30.532037 27.669659 21.277013 52.731372 45.416405 74.898903 73.690344-20.259279-9.573066-40.518558-19.146132-60.777836-28.751002-8.587135-4.070938-17.174271-8.173681-25.697798-12.340032-9.286828-4.516197-14.375501-2.162686-13.930242 8.650744 0.572476 14.59813-3.848309 27.00177-15.552256 36.384011z" fill="#EC671B" p-id="1928"></path><path d="M217.063702 425.603876c-25.697798 7.092338-34.761996 26.143057-27.097183 57.661024 2.226294 9.159611 5.565736 18.064789 7.951051 27.2244 2.989595 11.449514 10.622605 23.59872-9.763891 28.81461-7.951051 2.035469-8.01466 13.548591-7.060534 22.167531 1.017735 9.350436 6.042799 18.064789 4.325372 30.02317-9.318632-12.944312-17.206075-24.711868-22.421965-38.101438 0.095413-43.508153 0.222629-87.016306 0.318043-130.524459 14.21648-8.428114 44.875734-6.869708 53.749107 2.735162z" fill="#13344F" p-id="1929"></path><path d="M269.031773 258.377364c-4.738827 14.375501-12.371836 16.41097-25.443364 8.23729C209.907755 245.528465 206.886356 219.226388 236.241637 192.0974c6.551666-6.042799 13.834829-11.322297 20.799951-16.951641 12.117402-5.979191 24.171196-12.117402 36.384011-17.810355 3.339442-1.558406 7.569401-5.883778 10.845234-1.240364 2.448924 3.434854-2.353511 6.074603-3.911918 9.064198-0.954126 1.844644-2.067273 3.625679-3.116812 5.406715-9.922912 11.576731-17.810355 24.298413-22.676398 38.864739-3.371246 10.113737-3.7847 18.160201 5.502127 26.588316 9.954716 9.032394-5.661149 11.131472-7.155946 17.492313-18.891698-7.442184-25.093518-20.672733-20.79995-44.525888-18.446439 17.714942-17.428705 25.984036 4.770631 39.946082 4.357176 2.735162 9.954716 3.911917 12.149206 9.445849z" fill="#EC671B" p-id="1930"></path><path d="M217.063702 425.603876c-17.683138-5.59754-35.684318-4.61161-53.749107-2.735162a12642.171631 12642.171631 0 0 0-34.666584 0.127217c-6.392645 0.031804-11.608535-1.749231-12.689878-8.905177-1.113147-7.346771 2.035469-11.831164 9.573066-13.644004 12.753486-3.053204 25.379756-6.615275 38.069633-9.986521 18.732677-5.025064 37.43355-10.050129 56.357052-15.106997 2.830574 6.551666 0.890518 12.785291 0.381651 18.955306-6.170016 6.8061-14.311892 6.837904-25.888623 7.028729 10.654409 1.558406 19.305153-4.770631 25.602385 3.180421 0 12.62627-0.031804 25.252539-0.031804 37.878809l-2.099078-0.095413c-0.254434-5.533932-0.540671-11.131472-0.858713-16.697208zM729.42945 235.478336c-9.191415-5.661149-15.075193-12.658074-17.365096-24.266608-3.053204-15.584061-12.499053-28.751002-23.121657-40.677579-3.275833-5.343107-6.551666-10.654409-11.354102-18.541852 17.810355 4.834239 31.295338 13.38957 45.702643 19.654999 12.244619 9.795695 26.333882 17.333292 36.129578 30.02317 9.891108 12.848899 14.979781 26.524707 6.8061 42.267789-9.414045 18.096593-15.043389 18.573656-26.779141 2.289903 9.127807-22.930832 9.127807-22.930832-4.198155-36.638445 0.477063 9.382241 4.261764 19.305153-5.82017 25.888623z" fill="#EC671C" p-id="1931"></path><path d="M798.508184 404.676709c-2.226294-18.192005-2.258099-17.969376 14.502718-14.343697 13.866634 2.989595 27.82868 5.406715 41.758921 8.078269 6.329037 3.275833 16.824425 2.130882 16.315558 13.00792-0.445259 9.827499-8.523527 11.258689-16.41097 11.990185-13.739417-1.335777-27.574246-1.081343-40.613971 3.116812-16.888033 5.406715-18.955306-1.908252-15.679473-15.615865 1.558406-2.035469 4.99326-4.039134 0.127217-6.233624z" fill="#EC671B" p-id="1932"></path><path d="M238.245302 473.310184c1.367581-38.196851-4.738827-82.595521 8.809765-125.435786 14.407305-45.543622 33.935087-88.002236 75.980247-115.512874 21.40423-13.99385 45.22558-21.149797 70.478119-21.308817 75.216946-0.413455 150.433891 0.063608 225.650837 0.190825 52.508743 0.095413 92.550238 22.99444 120.569742 66.85244 26.206665 41.027425 40.582166 85.807746 40.45495 134.881635-0.159021 47.706308-0.190825 95.412616 0 143.118924 0.159021 36.288598-16.856229 60.364382-47.356462 80.114793-40.868404 26.461099-82.945368 36.065969-131.701214 33.648849-75.089729-3.721092-150.4975-2.321707-225.74625-0.508867-48.883064 1.176756-81.577787-29.164456-116.435196-54.607821-17.078858-12.467249-20.863559-34.857409-20.768146-56.325247 0.127217-26.524707 0.063608-53.01761 0.063608-85.108054z" fill="#FFFFFF" p-id="1933"></path><path d="M299.436593 738.271019c-42.80846-6.551666-85.23527-14.629934-124.767897-33.171786-18.192005-8.523527-18.128397-11.449514-9.477653-29.03724 10.686213-21.785881 9.573066-44.939342 4.166351-71.718483 8.428114 9.096003 14.407305 15.711277 20.609125 22.135727 4.134547 4.261764 8.809765 8.141877 15.329627 5.565736 6.774296-2.639749 6.424449-8.809765 6.551666-14.725347 0.413455-16.760816-6.519862-31.931422-10.558996-47.6427-2.607945-10.177346-3.371246-17.365096 9.318632-19.718607 5.184085-0.954126 6.742492-6.297233 9.541262-10.050129 0.667888 13.707613-0.190825 27.733267 2.258098 41.122838 6.678883 36.384011 30.277604 59.632885 62.717893 74.549057 11.608535 5.343107 16.251949 12.499053 15.297823 25.570581-1.367581 18.955306-0.731497 38.069634-0.985931 57.120353z" fill="#F5DA65" p-id="1934"></path><path d="M700.583036 675.998385c0 33.012765 0.826909 65.707488-0.286238 98.338603-0.731497 21.086188-16.379166 32.631115-40.932012 32.662919-75.24875 0.095413-150.465696 0.031804-225.714446 0.031804-25.443364 0-50.854924 0.190825-76.298289-0.063608-25.888623-0.222629-39.437215-13.325962-39.755256-38.928348-0.349846-30.532037-0.095413-61.095878-0.095413-92.009566 27.383421 9.286828 27.383421 9.286828 27.383421 34.602976 0 19.082523-0.222629 38.165046 0.095413 57.215765 0.286238 16.856229 7.219555 24.362021 24.171196 24.393826 93.24993 0.254434 186.49986 0.222629 279.717986-0.031805 17.333292-0.063608 23.630525-6.837904 23.980371-24.234804 0.413455-19.050719 0.190825-38.133242 0.190825-57.215766 0.095413-25.284343 0.095413-25.284343 27.542442-34.761996z" fill="#FDFDFE" p-id="1935"></path><path d="M229.721775 341.227319c-21.245209-1.876448-42.299593-0.826909-62.495263 6.233625-6.265428 2.19449-9.286828 0.159021-13.707613-3.434855-18.128397-14.661739-41.949747-8.01466-49.932602 13.866634-3.212225 8.841569-5.279498 18.096593-8.61894 29.864149-7.664813-30.532037-0.318042-54.607821 19.464174-74.453645 14.375501-14.439109 32.662919-22.61279 52.445135-28.051309 10.495388-2.894183 13.071528 0.095413 13.357766 9.954716 1.113147 34.984626 1.240364 34.793801 34.41215 21.467839 8.682548-3.498463 16.951641-8.936982 26.938162-8.428115-3.943721 11.004255-7.887443 22.00851-11.862969 32.980961zM777.549213 623.426033c20.450104 17.301488 41.727117 4.420785 65.802901 0.254434-16.315557 23.121657-35.747927 37.21092-58.360717 47.769917-21.436034 10.018325-46.370531 10.718017-66.025531 25.284343-0.318042-2.607945-0.477063-5.21589-0.954126-7.79203-3.466658-18.032984 2.957791-29.736932 20.577321-36.479424 15.456844-5.947386 27.415225-17.460509 38.960152-29.03724zM781.747368 321.031649c1.971861 0.763301 3.975526 1.399385 5.883778 2.258098 11.672143 5.152281 23.503308 11.449514 35.588906 1.749232 11.672143-9.382241 12.053794-22.771811 11.004255-36.193186-0.477063-6.297233-2.099078-12.499053-2.353512-18.796285-0.60428-14.788955 2.512532-16.760816 16.506383-10.622605 10.177346 4.484393 19.718607 10.081933 29.164456 18.859894-20.927167 3.498463-27.192596 17.492313-26.62012 35.779731 0.349846 11.735752-6.615275 16.729012-16.220144 20.450104-14.470913 5.629344-30.02317 5.343107-44.875734 8.777961-2.703357-7.442184-5.406715-14.852564-8.078268-22.262944z" fill="#F5DA65" p-id="1936"></path><path d="M639.677982 684.076653c13.230549-3.40305 16.41097 1.940057 16.983446 15.20241 0.636084 15.043389-5.056869 16.760816-17.873963 16.824425-12.499053 0.031804-16.856229-2.258099-17.047054-16.02932-0.222629-14.725347 4.548001-18.923502 17.937571-15.997515z" fill="#FAFBFC" p-id="1937"></path><path d="M567.355219 763.014691c4.134547 14.852564-4.229959 15.361431-15.997515 15.965711-14.21648 0.731497-17.174271-4.102742-17.683138-17.683138-0.60428-16.061124 8.141877-13.962046 18.382831-14.629935 12.753486-0.858714 19.082523 2.544336 15.297822 16.347362z" fill="#F8F9FA" p-id="1938"></path><path d="M639.200919 778.217101c-13.262354 2.766966-16.951641-2.639749-17.428704-15.965711-0.508867-14.629934 5.661149-15.647669 17.460509-15.711278 11.990185-0.063608 17.810355 1.399385 17.3969 15.774886-0.413455 13.421375-4.261764 18.700873-17.428705 15.902103z" fill="#F7F8F9" p-id="1939"></path><path d="M420.610616 747.144392c14.21648-3.816505 16.919837 2.321707 17.269683 15.170606 0.349846 13.739417-4.229959 16.283753-16.919837 16.251949-12.880703-0.031804-17.110662-3.148616-17.110662-16.633599-0.031804-13.739417 4.325372-18.287418 16.760816-14.788956zM377.802155 746.985371c14.025655-3.816505 15.933907 3.212225 16.41097 15.615865 0.572476 14.439109-5.629344 15.456844-17.524117 15.965711-13.803025 0.60428-15.997515-4.293568-16.283753-16.856229-0.286238-14.152871 5.056869-17.492313 17.3969-14.725347z" fill="#FBFCFD" p-id="1940"></path><path d="M595.979004 684.108457c13.325962-3.530267 16.251949 2.067273 16.856229 15.138802 0.699693 14.852564-4.707022 16.569991-17.651334 16.919837-13.866634 0.38165-16.124732-4.293568-16.124732-16.856229 0.031804-13.294158 3.625679-18.637264 16.919837-15.20241zM550.149144 715.276579c-13.707613 3.752896-15.361431-3.148616-16.251949-15.520453-1.144951-15.679473 5.979191-15.488648 17.969376-16.569991 15.902103-1.431189 15.456844 6.20182 16.315558 17.969376 1.144951 15.552256-6.933317 15.711277-18.032985 14.121068z" fill="#FFFFFF" p-id="1941"></path><path d="M522.956549 762.887474c4.102742 14.916172-4.261764 15.552256-16.092928 16.029319-13.38957 0.540671-16.156536-3.975526-16.665404-16.697207-0.572476-14.534522 5.374911-15.615865 17.23788-15.647669 12.40364 0 19.527782 2.067273 15.520452 16.315557z" fill="#FCFDFD" p-id="1942"></path><path d="M505.623257 715.276579c-15.42504 4.484393-13.962046-5.279498-15.329627-16.283754-2.162686-17.428705 8.269093-14.280088 18.700873-15.58406 15.997515-2.003665 13.580396 7.601205 14.725347 17.746746 1.749231 15.711277-6.996925 15.615865-18.096593 14.121068z" fill="#FFFFFF" p-id="1943"></path><path d="M595.9472 747.526043c14.852564-4.198155 16.251949 3.212225 16.856229 15.456844 0.699693 14.248284-4.929652 15.711277-17.110663 16.029319-13.548591 0.349846-16.41097-4.134547-16.633599-16.919837-0.286238-14.184676 4.802435-17.905768 16.888033-14.566326z" fill="#FCFDFD" p-id="1944"></path><path d="M462.210517 714.545082c-15.552256 4.420785-14.852564-5.025064-15.838495-16.347362-1.367581-15.552256 6.742492-14.884368 17.714943-15.043389 11.322297-0.190825 16.601795 1.399385 16.41097 15.011585-0.159021 14.248284-4.293568 19.686803-18.287418 16.379166zM420.86505 683.854024c13.071528-3.339442 16.951641 1.59021 16.983445 15.075193 0.031804 13.135137-3.40305 16.824425-16.633599 16.569991-12.499053-0.254434-17.524117-2.544336-17.365096-16.41097 0.159021-13.357766 3.7847-18.60546 17.01525-15.234214zM377.452309 683.854024c13.548591-3.562071 16.506383 2.353511 16.760816 15.297822 0.286238 13.898438-4.866043 16.02932-17.301487 16.315558-13.357766 0.318042-16.442774-3.689288-16.506383-16.6336-0.031804-13.580396 4.102742-18.22381 17.047054-14.97978z" fill="#FDFDFE" p-id="1945"></path><path d="M463.514489 747.335218c13.962046-3.816505 15.997515 3.053204 16.442774 15.552256 0.508867 14.21648-5.279498 15.711277-17.3969 16.092928-13.644004 0.445259-16.124732-4.166351-16.315558-16.824425-0.254434-14.025655 4.738827-17.714942 17.269684-14.820759z" fill="#FCFDFD" p-id="1946"></path><path d="M269.031773 258.377364c-2.925987-1.20856-5.915582-2.258099-8.777961-3.625679-33.617045-16.442774-34.539367-33.680653-1.399385-56.547877-8.332702 22.580986-6.297233 41.568096 14.025655 55.307513-1.240364 1.622014-2.544336 3.244029-3.848309 4.866043z" fill="#F5D762" p-id="1947"></path><path d="M217.986024 442.332888c0.699693 0.159021 1.399385 0.190825 2.099077 0.095413 0.031804 26.429295 0.031804 52.826785 0.063609 79.25608-4.484393-16.061124-8.936982-32.122247-13.453179-48.183372-3.689288-13.103333-0.60428-23.725937 11.290493-31.168121z" fill="#EBCF61" p-id="1948"></path><path d="M720.842315 747.875889c-4.579806 26.524707 17.524117 22.835419 34.443954 27.955897-13.771221 8.61894-26.938162 12.244619-40.105103 15.902102 6.170016-24.330217 0.413455-49.264714 3.7847-73.753952 1.622014 1.240364 3.212225 2.512532 4.83424 3.7847 2.226294 9.064199 0.954126 17.746747-2.957791 26.111253z" fill="#F4D460" p-id="1949"></path><path d="M729.42945 235.478336c6.233624-10.81343 0.98593-22.23114 0.795105-33.871478 25.220735 14.725347 27.796875 28.305743 9.22322 44.653104l-10.018325-10.781626z" fill="#F5D964" p-id="1950"></path><path d="M301.440258 788.489859c-10.050129-1.017735-18.891698-5.406715-29.19626-10.272758 12.530857-8.39631 22.676398-17.651334 27.288008-31.390751l1.908252 41.663509z" fill="#F0D362" p-id="1951"></path><path d="M797.172407 509.694195c0-15.329627-0.063608-26.174861 0.063609-37.020095 0.031804-2.925987-1.081343-6.996925 2.925987-7.919247 3.371246-0.795105 5.724757 2.353511 7.41038 4.866043 9.668478 14.59813 1.399385 25.41156-10.399976 40.073299z" fill="#D4601E" p-id="1952"></path><path d="M220.116905 404.549492H190.825232c12.181011-6.488058 20.609125-9.127807 29.577911-10.20915-0.127217 3.40305-0.222629 6.8061-0.286238 10.20915z" fill="#F1D15F" p-id="1953"></path><path d="M797.331428 576.13318c8.523527 6.8061 5.692953 10.654409-3.339441 12.944312-2.19449-5.152281 2.862378-8.459919 3.339441-12.944312z" fill="#F5C351" p-id="1954"></path><path d="M418.161692 190.061931c2.480728-1.59021 5.438519-4.897848 7.346772-4.38898 4.675218 1.272168 1.717427 4.166351-0.254434 5.979191-0.954126 0.858714-2.607945 0.922322-3.975526 1.36758-1.049539-0.98593-2.067273-1.971861-3.116812-2.957791z" fill="#EC671B" p-id="1955"></path><path d="M798.508184 404.676709c2.703357 1.240364 5.438519 2.480728 9.573066 4.38898-4.198155 0.795105-6.965121 1.303972-9.732087 1.81284 0.063608-2.035469 0.095413-4.134547 0.159021-6.20182z" fill="#F6D25E" p-id="1956"></path><path d="M275.96509 753.568842c-20.4183 10.81343-38.069634 6.329037-57.820045-13.00792 19.305153 4.325372 36.861074 8.269093 57.820045 13.00792z" fill="#2E374A" p-id="1957"></path><path d="M720.842315 747.875889c0.60428-8.746156-3.625679-18.032984 2.957791-26.111253 6.106407 2.289903 13.166941 2.321707 18.351026 7.887443-7.283163 6.233624-14.280088 12.244619-21.308817 18.22381z" fill="#F6D863" p-id="1958"></path><path d="M582.971084 444.431966c0.127217-41.345467 32.281268-72.799826 74.199211-72.481784 39.182781 0.286238 71.305028 32.662919 71.718483 72.22735 0.413455 40.105103-33.998696 74.612666-73.849364 74.103799-39.977886-0.508867-72.195546-33.521632-72.06833-73.849365zM362.345312 372.045594c40.8366-0.063608 72.704413 31.390751 73.022455 72.036525 0.318042 40.804795-33.235395 74.708078-73.372302 74.167407-40.00969-0.540671-72.290959-33.521632-72.22735-73.722148 0.063608-40.709383 31.83601-72.418176 72.577197-72.481784zM545.696556 617.319626c-1.940057-0.636084-6.392645-1.144951-9.8275-3.275833-18.096593-11.290493-35.684318-9.318632-53.653694 0.349846-9.509457 5.120477-19.082523 6.074603-27.097183-3.689288-8.141877-9.954716-4.261764-18.351026 2.512532-26.938162 12.435444-15.774886 24.362021-31.899618 36.82927-47.674503 10.558996-13.357766 24.139392-13.421375 34.125912 0.349846 12.371836 17.078858 24.584651 34.380346 35.684319 52.317918 8.650744 14.089263-0.318042 28.751002-18.573656 28.560176z" fill="#283A50" p-id="1959"></path></svg>